<svg xmlns="http://www.w3.org/2000/svg" viewBox="0 0 32 32">
<path fill="#fff" d="M19.11 17.48c-.32-.16-1.9-.94-2.19-1.04-.29-.1-.5-.16-.71.16-.21.32-.82 1.04-1 1.25-.18.21-.37.23-.69.08-.32-.16-1.35-.5-2.58-1.6-.95-.84-1.59-1.88-1.77-2.2-.18-.32-.02-.5.13-.66.13-.13.32-.34.47-.5.16-.16.21-.26.32-.45.11-.18.05-.34-.03-.5-.08-.16-.71-1.72-.97-2.36-.26-.63-.52-.55-.71-.56-.18-.01-.39-.01-.6-.01s-.55.08-.84.39c-.29.32-1.1 1.08-1.1 2.63s1.13 3.05 1.29 3.26c.16.21 2.23 3.4 5.41 4.76.76.33 1.35.53 1.81.68.76.24 1.45.21 2 .13.61-.09 1.9-.77 2.17-1.52.27-.74.27-1.38.19-1.52-.08-.13-.29-.21-.61-.37z"/>
<path fill="#25D366" d="M16 .4C7.34.4.4 7.34.4 16c0 2.78.73 5.48 2.12 7.86L.4 31.6l8.02-2.06C10.7 30.87 13.32 31.6 16 31.6c8.66 0 15.6-6.94 15.6-15.6S24.66.4 16 .4zm0 28.4c-2.45 0-4.84-.65-6.92-1.88l-.5-.29-4.76 1.22 1.27-4.65-.32-.54C3.61 20.76 3 18.43 3 16 3 9.38 9.38 3 16 3s13 6.38 13 13-6.38 13-13 13z"/>
</svg>